<svg width="30" height="31" viewBox="0 0 30 31" fill="none" xmlns="http://www.w3.org/2000/svg">
<rect x="0.213867" y="0.757812" width="29.7717" height="29.7717" rx="14.8858" fill="#F2FDF6"/>
<path d="M18.2011 21.3811H11.9987C10.1379 21.3811 8.89746 20.4507 8.89746 18.2798V13.9381C8.89746 11.7673 10.1379 10.8369 11.9987 10.8369H18.2011C20.0618 10.8369 21.3023 11.7673 21.3023 13.9381V18.2798C21.3023 20.4507 20.0618 21.3811 18.2011 21.3811Z" stroke="#22C55E" stroke-width="0.930365" stroke-miterlimit="10" stroke-linecap="round" stroke-linejoin="round"/>
<path d="M15.1 17.9695C16.1276 17.9695 16.9607 17.1364 16.9607 16.1088C16.9607 15.0811 16.1276 14.248 15.1 14.248C14.0723 14.248 13.2393 15.0811 13.2393 16.1088C13.2393 17.1364 14.0723 17.9695 15.1 17.9695Z" stroke="#22C55E" stroke-width="0.930365" stroke-miterlimit="10" stroke-linecap="round" stroke-linejoin="round"/>
<path d="M11.0693 14.5576V17.6588" stroke="#22C55E" stroke-width="0.930365" stroke-miterlimit="10" stroke-linecap="round" stroke-linejoin="round"/>
<path d="M19.1318 14.5576V17.6588" stroke="#22C55E" stroke-width="0.930365" stroke-miterlimit="10" stroke-linecap="round" stroke-linejoin="round"/>
</svg>
