<svg width="30" height="31" viewBox="0 0 30 31" fill="none" xmlns="http://www.w3.org/2000/svg">
<rect x="0.213867" y="0.720703" width="29.7717" height="29.7717" rx="14.8858" fill="#F4F0FF"/>
<path d="M15.5093 9.25887L15.4907 9.30229L13.692 13.4765H11.9243C11.5025 13.4765 11.0993 13.5634 10.7334 13.7184L11.8188 11.1258L11.8436 11.0638L11.8871 10.9645C11.8995 10.9273 11.9119 10.8901 11.9305 10.8591C12.743 8.97976 13.6609 8.55179 15.5093 9.25887Z" stroke="#936DFF" stroke-width="0.930365" stroke-linecap="round" stroke-linejoin="round"/>
<path d="M18.8518 13.6005C18.5727 13.5137 18.275 13.4764 17.9773 13.4764H13.6914L15.4901 9.30221L15.5087 9.25879C15.6018 9.2898 15.6886 9.33322 15.7816 9.37043L17.1524 9.94726C17.9153 10.2636 18.4487 10.5923 18.7712 10.9893C18.8332 11.0637 18.8828 11.1319 18.9263 11.2126C18.9821 11.2994 19.0255 11.3862 19.0503 11.4793C19.0751 11.5351 19.0937 11.5909 19.1061 11.6405C19.2736 12.1615 19.1744 12.8004 18.8518 13.6005Z" stroke="#936DFF" stroke-width="0.930365" stroke-linecap="round" stroke-linejoin="round"/>
<path d="M21.0052 16.5034V17.7128C21.0052 17.8369 20.999 17.9609 20.9928 18.085C20.875 20.2496 19.6655 21.3412 17.3706 21.3412H12.5327C12.3839 21.3412 12.235 21.3288 12.0923 21.3102C10.12 21.18 9.06556 20.1256 8.93531 18.1532C8.9167 18.0105 8.9043 17.8617 8.9043 17.7128V16.5034C8.9043 15.2567 9.66099 14.1836 10.7402 13.7185C11.1124 13.5634 11.5093 13.4766 11.9311 13.4766H17.9847C18.2886 13.4766 18.5863 13.52 18.8592 13.6006C20.0935 13.979 21.0052 15.1326 21.0052 16.5034Z" stroke="#936DFF" stroke-width="0.930365" stroke-linecap="round" stroke-linejoin="round"/>
<path d="M11.8188 11.126L10.7334 13.7186C9.65416 14.1838 8.89746 15.2568 8.89746 16.5035V14.6862C8.89746 12.9247 10.1504 11.4547 11.8188 11.126Z" stroke="#936DFF" stroke-width="0.930365" stroke-linecap="round" stroke-linejoin="round"/>
<path d="M21.0044 14.6862V16.5035C21.0044 15.1389 20.0989 13.9791 18.8584 13.6069C19.1809 12.8006 19.274 12.168 19.1189 11.6408C19.1065 11.5849 19.0879 11.5291 19.0631 11.4795C20.2167 12.0749 21.0044 13.2968 21.0044 14.6862Z" stroke="#936DFF" stroke-width="0.930365" stroke-linecap="round" stroke-linejoin="round"/>
</svg>
